<?xml version="1.0" encoding="UTF-8" standalone="no"?><!DOCTYPE svg PUBLIC "-//W3C//DTD SVG 1.1//EN" "http://www.w3.org/Graphics/SVG/1.1/DTD/svg11.dtd"><svg width="100%" height="100%" viewBox="0 0 1042 1488" version="1.1" xmlns="http://www.w3.org/2000/svg" xmlns:xlink="http://www.w3.org/1999/xlink" xml:space="preserve" xmlns:serif="http://www.serif.com/" style="fill-rule:evenodd;clip-rule:evenodd;stroke-linejoin:round;stroke-miterlimit:2;"><g id="succulent"><g id="plant"><path id="middle" d="M486.832,5.24l62.57,3.493l204.615,805.433l-439.161,6.178l171.976,-815.104Z" style="fill:#a9ca95;"/><path id="back_left" d="M609.455,815.753l-275.58,2.38l-200.91,-726.197l56.812,-38.363l419.678,762.18Z" style="fill:#81a56b;"/><path id="back_right" d="M404.34,821.318l343.873,-11.342l153.216,-720.133l-46.095,-46.402l-450.994,777.877Z" style="fill:#92b77e;"/><path id="front_right" d="M555.108,819.583l278.497,-0.933l175.019,-514.126l-36.258,-52.47l-417.258,567.529Z" style="fill:#a9ca95;"/><path id="front_left" d="M479.322,821.205l-280.906,0.579l-173.611,-520.334l33.355,-49.033l421.162,568.788Z" style="fill:#a9ca95;"/></g><g id="pot"><path id="bottom" d="M168.65,1482.43l698.058,-0.672l74.157,-469.798l-846.798,-5.889l74.583,476.359Z" style="fill:#9a7e6b;"/><path id="top" d="M38.031,806.81l958.183,-7.675l-9.139,238.163l-939.636,-2.03l-9.408,-228.458Z" style="fill:#b18f78;"/></g></g></svg>
